<svg width="38" height="38" viewBox="0 0 38 38" fill="none" xmlns="http://www.w3.org/2000/svg">
<circle cx="19" cy="19" r="19" fill="white"/>
<path d="M19 10C16.5223 10 14.2627 11.0082 12.6355 12.6355C12.3942 12.8767 12.2587 13.2039 12.2587 13.5451C12.2587 13.8863 12.3942 14.2135 12.6355 14.4548C12.8767 14.6961 13.2039 14.8316 13.5451 14.8316C13.8863 14.8316 14.2135 14.6961 14.4548 14.4548C15.6196 13.29 17.2172 12.5714 19 12.5714C22.5656 12.5714 25.4286 15.4344 25.4286 19C25.4286 20.7828 24.71 22.3804 23.5452 23.5452C22.3804 24.71 20.7828 25.4286 19 25.4286C17.2172 25.4286 15.6196 24.71 14.4548 23.5452C14.2135 23.3039 13.8863 23.1684 13.5451 23.1684C13.2039 23.1684 12.8767 23.3039 12.6355 23.5452C12.3942 23.7865 12.2587 24.1137 12.2587 24.4549C12.2587 24.7961 12.3942 25.1233 12.6355 25.3645C14.2627 26.9918 16.5223 28 19 28C21.4777 28 23.7373 26.9918 25.3645 25.3645C26.9918 23.7373 28 21.4777 28 19C28 14.0447 23.9553 10 19 10ZM19.005 15.1429C18.7494 15.1426 18.4994 15.2187 18.2873 15.3614C18.0751 15.5041 17.9103 15.7069 17.814 15.9438C17.7177 16.1808 17.6943 16.441 17.7468 16.6914C17.7993 16.9417 17.9252 17.1706 18.1085 17.3489L18.4739 17.7143H11.2857C10.5734 17.7143 10 18.2877 10 19C10 19.7123 10.5734 20.2857 11.2857 20.2857H18.4689L18.1085 20.6461C17.9847 20.7643 17.8857 20.9062 17.8174 21.0633C17.7491 21.2204 17.7129 21.3896 17.711 21.5609C17.709 21.7322 17.7413 21.9021 17.806 22.0608C17.8707 22.2194 17.9664 22.3635 18.0875 22.4845C18.2087 22.6056 18.3528 22.7012 18.5115 22.7658C18.6701 22.8303 18.84 22.8624 19.0113 22.8603C19.1825 22.8582 19.3516 22.8218 19.5086 22.7533C19.6656 22.6849 19.8073 22.5857 19.9254 22.4616L22.4817 19.9053C22.7225 19.6643 22.8578 19.3376 22.8578 18.9969C22.8578 18.6562 22.7225 18.3294 22.4817 18.0884L19.9254 15.5321C19.8057 15.409 19.6627 15.3111 19.5046 15.2443C19.3465 15.1774 19.1766 15.1429 19.005 15.1429Z" fill="#00B2B2" stroke="white"/>
</svg>
